<svg xmlns:xlink="http://www.w3.org/1999/xlink" width="24" height="24" viewBox="0 0 24 24" fill="none" xmlns="http://www.w3.org/2000/svg"><path fill-rule="evenodd" clip-rule="evenodd" d="M17.8551 13.1619C16.6381 14.3788 15.308 15.3211 14.0097 15.9478C14.5092 17.8175 13.7101 19.8641 11.9409 20.8627L10.335 21.7692L10.2708 16.8361C9.37835 16.7833 8.60933 16.4865 8.0455 15.9226C7.48831 15.3655 7.19191 14.6079 7.13406 13.7289L2.23081 13.665L3.13732 12.0591C4.12852 10.3032 6.15204 9.50285 8.01031 9.97934C8.63695 8.67447 9.58277 7.33658 10.8063 6.11307C14.2775 2.64187 18.6694 1.40583 20.6158 3.3523C22.5623 5.29877 21.3263 9.69066 17.8551 13.1619ZM6.75014 19.0565C5.93359 19.8731 4.89354 20.1569 4.42712 19.6905C3.96071 19.2241 4.24455 18.184 5.0611 17.3675C5.87765 16.5509 6.9177 16.2671 7.38412 16.7335C7.85053 17.1999 7.56669 18.24 6.75014 19.0565ZM13.9785 10.0214C14.6294 10.6724 15.6536 10.7036 16.266 10.0912C16.8784 9.47875 16.8472 8.45461 16.1963 7.80368C15.5453 7.15275 14.5212 7.12153 13.9088 7.73394C13.2964 8.34636 13.3276 9.3705 13.9785 10.0214Z" fill="currentColor"></path></svg>