<svg xmlns:xlink="http://www.w3.org/1999/xlink" width="24" height="24" viewBox="0 0 24 24" fill="none" xmlns="http://www.w3.org/2000/svg" class="styles_search__icon__BLJwh"><path fill-rule="evenodd" clip-rule="evenodd" d="M10.521 3C6.36727 3 3 6.36727 3 10.521C3 14.6747 6.36727 18.042 10.521 18.042C12.24 18.042 13.8243 17.4653 15.0909 16.4948L19.5961 21L21 19.5961L16.4949 15.0909C17.4653 13.8243 18.042 12.24 18.042 10.521C18.042 6.36727 14.6747 3 10.521 3ZM5.0056 10.521C5.0056 7.47493 7.47493 5.0056 10.521 5.0056C13.5671 5.0056 16.0364 7.47493 16.0364 10.521C16.0364 13.5671 13.5671 16.0364 10.521 16.0364C7.47493 16.0364 5.0056 13.5671 5.0056 10.521Z" fill="currentColor" stroke="currentColor"></path></svg>