<svg xmlns:xlink="http://www.w3.org/1999/xlink" width="24" height="24" viewBox="0 0 24 24" fill="none" xmlns="http://www.w3.org/2000/svg" data-testid="icon-filled"><path fill-rule="evenodd" clip-rule="evenodd" d="M14.0775 2.60622C14.0047 1.70545 13.2533 1 12.3333 1C11.365 1 10.5833 1.78167 10.5833 2.75V3.54333L10.3286 3.60866C7.13873 4.49023 5.33333 7.41547 5.33333 10.9167V16.75L3 19.0833V20.25H21.6667V19.0833L19.3333 16.75V10.9167L19.3296 10.6423C19.2343 7.18269 17.3344 4.31632 14.0833 3.54333V2.75L14.0775 2.60622ZM14.6667 21.4167H12.6667H12H10C10 22.2628 10.4513 23.0075 11.13 23.4167C11.4807 23.6281 11.8921 23.75 12.3333 23.75C12.7706 23.75 13.1807 23.6281 13.5315 23.4167C14.2102 23.0075 14.6667 22.2628 14.6667 21.4167Z" fill="currentColor"></path></svg>