<svg xmlns:xlink="http://www.w3.org/1999/xlink" width="24" height="24" viewBox="0 0 24 24" fill="none" xmlns="http://www.w3.org/2000/svg"><path fill-rule="evenodd" clip-rule="evenodd" d="M16.5 10.1L15.8475 9.51732L15.8418 9.51225C13.5275 7.45368 12 6.09498 12 4.42779C12 3.06823 13.089 2 14.475 2C15.0551 2 15.6179 2.19625 16.0701 2.52772C16.2283 2.64366 16.3729 2.77615 16.5 2.92256C16.6271 2.77615 16.7717 2.64366 16.9299 2.52772C17.3821 2.19625 17.9449 2 18.525 2C19.911 2 21 3.06823 21 4.42779C21 6.09208 19.4778 7.44895 17.1703 9.5059L17.1525 9.52174L16.5 10.1Z" fill="currentColor"></path><path d="M3 10.521C3 6.54239 6.08931 3.28533 10 3.01776V5.02988C7.19827 5.29239 5.0056 7.65063 5.0056 10.521C5.0056 13.5671 7.47493 16.0364 10.521 16.0364C13.0547 16.0364 15.1894 14.3278 15.8358 12H17.8966C17.6682 13.1456 17.1795 14.1973 16.4949 15.0909L21 19.5961L19.5961 21L15.0909 16.4948C13.8243 17.4653 12.24 18.042 10.521 18.042C6.36727 18.042 3 14.6747 3 10.521Z" fill="currentColor"></path></svg>