<svg xmlns:xlink="http://www.w3.org/1999/xlink" width="20" height="20" viewBox="0 0 20 20" fill="none" xmlns="http://www.w3.org/2000/svg"><path d="M2.01173 2H0V0H3.52054L4.5264 2H18.9987C19.7431 2 20.2258 2.78427 19.8914 3.44931L16.3708 10.4493C16.201 10.7869 15.8554 11 15.4775 11H7.04107L6.31343 12.4468C6.18576 12.7006 6.37029 13 6.65444 13H17.1057C17.6579 13 18.1056 13.4477 18.1056 13.9999C18.1056 14.5522 17.6578 14.9999 17.1055 14.9998L5.53227 14.9976C4.97674 14.9976 4.32571 14.5 4.02347 14C3.72123 13.5 4.02347 12.5 4.02347 12.5L5.53227 9.5L2.01173 2Z" fill="currentColor"></path><path d="M8.04694 18C8.04694 19.1046 7.14625 20 6.0352 20C4.92415 20 4.02347 19.1046 4.02347 18C4.02347 16.8954 4.92415 16 6.0352 16C7.14625 16 8.04694 16.8954 8.04694 18Z" fill="currentColor"></path><path d="M16.0938 20C17.2049 20 18.1056 19.1046 18.1056 18C18.1056 16.8954 17.2049 16 16.0938 16C14.9828 16 14.0821 16.8954 14.0821 18C14.0821 19.1046 14.9828 20 16.0938 20Z" fill="currentColor"></path></svg>